<svg class="obsidian-icon" width="24" height="24" viewBox="0 0 24 24" fill="none" xmlns="http://www.w3.org/2000/svg" stroke="currentColor" stroke-width="1.7" stroke-linecap="round" stroke-linejoin="round">
  <path d="M12 15.2C13.8 15.2 15.2 13.8 15.2 12C15.2 10.2 13.8 8.8 12 8.8C10.2 8.8 8.8 10.2 8.8 12C8.8 13.8 10.2 15.2 12 15.2Z"/><path d="M19.4 13.8V10.2L17.4 9.7C17.2 9.1 16.9 8.6 16.6 8.1L17.2 6.1L14.1 4.3L12.7 5.8C12.2 5.7 11.8 5.7 11.3 5.8L9.9 4.3L6.8 6.1L7.4 8.1C7.1 8.6 6.8 9.1 6.6 9.7L4.6 10.2V13.8L6.6 14.3C6.8 14.9 7.1 15.4 7.4 15.9L6.8 17.9L9.9 19.7L11.3 18.2C11.8 18.3 12.2 18.3 12.7 18.2L14.1 19.7L17.2 17.9L16.6 15.9C16.9 15.4 17.2 14.9 17.4 14.3L19.4 13.8Z"/>
</svg>
