<svg class="obsidian-icon" width="24" height="24" viewBox="0 0 24 24" fill="none" xmlns="http://www.w3.org/2000/svg" stroke="currentColor" stroke-width="1.7" stroke-linecap="round" stroke-linejoin="round">
  <path d="M18 8C19.4 8 20.5 6.9 20.5 5.5C20.5 4.1 19.4 3 18 3C16.6 3 15.5 4.1 15.5 5.5C15.5 6.9 16.6 8 18 8Z"/><path d="M6 14.5C7.4 14.5 8.5 13.4 8.5 12C8.5 10.6 7.4 9.5 6 9.5C4.6 9.5 3.5 10.6 3.5 12C3.5 13.4 4.6 14.5 6 14.5Z"/><path d="M18 21C19.4 21 20.5 19.9 20.5 18.5C20.5 17.1 19.4 16 18 16C16.6 16 15.5 17.1 15.5 18.5C15.5 19.9 16.6 21 18 21Z"/><path d="M8.2 10.8L15.8 6.7"/><path d="M8.2 13.2L15.8 17.3"/>
</svg>
